<svg width="256" height="256" viewBox="0 0 256 256" fill="none" xmlns="http://www.w3.org/2000/svg">
<path d="M213.916 199.382C210.844 196.456 206.679 194.811 202.336 194.811C197.993 194.811 193.827 196.456 190.756 199.382L188.708 201.334L160.089 174.044V133.075L197.633 142.437C199.801 142.978 202.059 143.106 204.279 142.815C206.499 142.524 208.637 141.82 210.571 140.741C212.505 139.663 214.197 138.231 215.551 136.53C216.905 134.828 217.894 132.889 218.461 130.822C219.608 126.653 218.971 122.22 216.69 118.498C214.41 114.776 210.672 112.069 206.298 110.972L151.322 97.2632V94.6055C159.378 89.7041 165.55 82.4449 168.911 73.9171C172.271 65.3893 172.64 56.0528 169.961 47.3084C167.282 38.564 161.701 30.8833 154.053 25.4186C146.406 19.9539 137.106 17 127.548 17C117.99 17 108.689 19.9539 101.042 25.4186C93.3947 30.8833 87.8129 38.564 85.1341 47.3084C82.4553 56.0528 82.824 65.3893 86.1847 73.9171C89.5455 82.4449 95.7171 89.7041 103.774 94.6055V97.2632L48.75 110.972C46.5815 111.512 44.5458 112.454 42.7593 113.744C40.9728 115.034 39.4704 116.646 38.338 118.49C37.2056 120.333 36.4654 122.371 36.1596 124.487C35.8538 126.603 35.9884 128.756 36.5558 130.822C37.1229 132.892 38.1127 134.834 39.4686 136.538C40.8245 138.242 42.5198 139.675 44.4574 140.754C46.395 141.833 48.5369 142.537 50.7604 142.825C52.9839 143.114 55.2453 142.982 57.4151 142.437L94.9667 133.075V174.044L66.3481 201.334L64.3 199.382C62.7798 197.934 60.9751 196.784 58.989 196C57.0028 195.216 54.874 194.813 52.7242 194.813C50.5743 194.813 48.4455 195.216 46.4593 196C44.4732 196.784 42.6685 197.934 41.1483 199.382C39.6281 200.831 38.4223 202.551 37.5996 204.444C36.7769 206.337 36.3534 208.366 36.3534 210.415C36.3534 212.464 36.7769 214.493 37.5996 216.386C38.4223 218.279 39.6281 219.999 41.1483 221.447L54.7683 234.428C56.2879 235.878 58.0924 237.028 60.0786 237.813C62.0649 238.598 64.194 239.002 66.3442 239.002C68.4944 239.002 70.6235 238.598 72.6097 237.813C74.596 237.028 76.4005 235.878 77.92 234.428L125.767 188.812H129.281L177.152 234.428C178.671 235.878 180.476 237.028 182.462 237.813C184.448 238.598 186.577 239.002 188.728 239.002C190.878 239.002 193.007 238.598 194.993 237.813C196.979 237.028 198.784 235.878 200.303 234.428L213.923 221.447C215.444 219.999 216.65 218.279 217.473 216.386C218.295 214.493 218.719 212.464 218.719 210.415C218.719 208.366 218.295 206.337 217.473 204.444C216.65 202.551 215.444 200.831 213.923 199.382H213.916Z" fill="#A27256" stroke="#3D1F1F" stroke-width="5" stroke-linejoin="round"/>
<path d="M127.524 177.678C132.562 177.678 136.646 173.785 136.646 168.984C136.646 164.182 132.562 160.29 127.524 160.29C122.486 160.29 118.402 164.182 118.402 168.984C118.402 173.785 122.486 177.678 127.524 177.678Z" fill="#D95D5A" stroke="#3D1F1F" stroke-width="5" stroke-linejoin="round"/>
<path d="M127.524 148.563C132.562 148.563 136.646 144.671 136.646 139.869C136.646 135.068 132.562 131.175 127.524 131.175C122.486 131.175 118.402 135.068 118.402 139.869C118.402 144.671 122.486 148.563 127.524 148.563Z" fill="#D95D5A" stroke="#3D1F1F" stroke-width="5" stroke-linejoin="round"/>
<path d="M137.04 101.302L128.643 105.927C128.237 106.148 127.778 106.265 127.311 106.265C126.844 106.265 126.385 106.148 125.98 105.927L117.583 101.302C117.177 101.079 116.717 100.962 116.249 100.962C115.781 100.963 115.321 101.081 114.916 101.305C114.511 101.529 114.175 101.85 113.942 102.237C113.709 102.625 113.587 103.063 113.589 103.51V119.328C113.587 119.774 113.709 120.213 113.942 120.6C114.175 120.988 114.511 121.309 114.916 121.533C115.321 121.757 115.781 121.875 116.249 121.875C116.717 121.876 117.177 121.759 117.583 121.535L125.949 116.918C126.353 116.693 126.812 116.575 127.28 116.575C127.748 116.575 128.207 116.693 128.611 116.918L137.008 121.535C137.415 121.758 137.875 121.875 138.343 121.874C138.812 121.874 139.272 121.756 139.677 121.532C140.083 121.308 140.419 120.987 140.653 120.6C140.887 120.213 141.01 119.775 141.01 119.328V103.51C141.007 103.068 140.884 102.634 140.651 102.251C140.419 101.868 140.086 101.55 139.685 101.327C139.285 101.104 138.83 100.985 138.366 100.981C137.902 100.976 137.445 101.087 137.04 101.302Z" fill="#3D1F1F"/>
<path d="M142.861 59.5748C147.077 59.5748 150.495 56.3177 150.495 52.2999C150.495 48.282 147.077 45.0249 142.861 45.0249C138.646 45.0249 135.228 48.282 135.228 52.2999C135.228 56.3177 138.646 59.5748 142.861 59.5748Z" fill="#3D1F1F"/>
<path d="M112.187 59.5748C116.402 59.5748 119.82 56.3177 119.82 52.2999C119.82 48.282 116.402 45.0249 112.187 45.0249C107.971 45.0249 104.554 48.282 104.554 52.2999C104.554 56.3177 107.971 59.5748 112.187 59.5748Z" fill="#3D1F1F"/>
<path d="M141.585 71.6321C140.448 74.193 138.545 76.378 136.113 77.9141C133.681 79.4502 130.828 80.2695 127.91 80.2695C124.992 80.2695 122.139 79.4502 119.707 77.9141C117.275 76.378 115.372 74.193 114.235 71.6321" stroke="#3D1F1F" stroke-width="5" stroke-linecap="round" stroke-linejoin="round"/>
</svg>
